<mxfile host="Electron" modified="2020-06-16T08:26:11.119Z" agent="Mozilla/5.0 (X11; Linux x86_64) AppleWebKit/537.36 (KHTML, like Gecko) draw.io/12.3.2 Chrome/78.0.3904.113 Electron/7.1.2 Safari/537.36" etag="5uPbngWrsnnCX4Le1uyR" version="12.3.2" type="device" pages="1">
  <diagram id="n4n1wikeTLbH3E536VXC" name="Page-1">
    <mxGraphModel dx="653" dy="403" grid="1" gridSize="10" guides="0" tooltips="1" connect="1" arrows="1" fold="1" page="1" pageScale="1" pageWidth="827" pageHeight="1169" math="0" shadow="0">
      <root>
        <mxCell id="0"/>
        <mxCell id="1" parent="0"/>
        <mxCell id="RfTrxxiNaBLT--HmSFj_-1" value="&lt;b&gt;&lt;font color=&quot;#b85450&quot;&gt;switch&lt;/font&gt;&lt;/b&gt;" style="rounded=0;whiteSpace=wrap;html=1;" vertex="1" parent="1">
          <mxGeometry x="160" y="240" width="40" height="20" as="geometry"/>
        </mxCell>
        <mxCell id="RfTrxxiNaBLT--HmSFj_-2" value="b" style="rounded=0;whiteSpace=wrap;html=1;fillColor=#f5f5f5;strokeColor=#666666;fontColor=#333333;" vertex="1" parent="1">
          <mxGeometry x="200" y="240" width="20" height="20" as="geometry"/>
        </mxCell>
        <mxCell id="RfTrxxiNaBLT--HmSFj_-4" value="&lt;b&gt;&lt;font color=&quot;#b85450&quot;&gt;case&lt;/font&gt;&lt;/b&gt;" style="rounded=0;whiteSpace=wrap;html=1;" vertex="1" parent="1">
          <mxGeometry x="160" y="280" width="40" height="20" as="geometry"/>
        </mxCell>
        <mxCell id="RfTrxxiNaBLT--HmSFj_-5" value="0x0f" style="rounded=0;whiteSpace=wrap;html=1;fillColor=#f5f5f5;strokeColor=#666666;fontColor=#333333;" vertex="1" parent="1">
          <mxGeometry x="200" y="280" width="40" height="20" as="geometry"/>
        </mxCell>
        <mxCell id="RfTrxxiNaBLT--HmSFj_-6" value="&lt;font color=&quot;#999999&quot;&gt;// 3DNow! data insns&lt;/font&gt;" style="text;html=1;align=left;verticalAlign=middle;resizable=0;points=[];;autosize=1;" vertex="1" parent="1">
          <mxGeometry x="240" y="280" width="130" height="20" as="geometry"/>
        </mxCell>
        <mxCell id="RfTrxxiNaBLT--HmSFj_-7" value="&lt;b&gt;tcg_gen_addi_ptr&lt;/b&gt;" style="rounded=0;whiteSpace=wrap;html=1;" vertex="1" parent="1">
          <mxGeometry x="200" y="320" width="120" height="20" as="geometry"/>
        </mxCell>
        <mxCell id="RfTrxxiNaBLT--HmSFj_-21" style="edgeStyle=orthogonalEdgeStyle;rounded=0;orthogonalLoop=1;jettySize=auto;html=1;fillColor=#ffe6cc;strokeColor=#d79b00;strokeWidth=2;" edge="1" parent="1" source="RfTrxxiNaBLT--HmSFj_-8" target="RfTrxxiNaBLT--HmSFj_-19">
          <mxGeometry relative="1" as="geometry">
            <Array as="points">
              <mxPoint x="360" y="400"/>
              <mxPoint x="460" y="400"/>
            </Array>
          </mxGeometry>
        </mxCell>
        <mxCell id="RfTrxxiNaBLT--HmSFj_-8" value="TCGv_ptr r" style="rounded=0;whiteSpace=wrap;html=1;fillColor=#ffe6cc;strokeColor=#d79b00;" vertex="1" parent="1">
          <mxGeometry x="320" y="320" width="80" height="20" as="geometry"/>
        </mxCell>
        <mxCell id="RfTrxxiNaBLT--HmSFj_-27" style="edgeStyle=orthogonalEdgeStyle;rounded=0;orthogonalLoop=1;jettySize=auto;html=1;strokeWidth=2;fillColor=#dae8fc;strokeColor=#6c8ebf;" edge="1" parent="1" source="RfTrxxiNaBLT--HmSFj_-9" target="RfTrxxiNaBLT--HmSFj_-13">
          <mxGeometry relative="1" as="geometry"/>
        </mxCell>
        <mxCell id="RfTrxxiNaBLT--HmSFj_-9" value="TCGv_ptr a" style="rounded=0;whiteSpace=wrap;html=1;fillColor=#dae8fc;strokeColor=#6c8ebf;" vertex="1" parent="1">
          <mxGeometry x="400" y="320" width="80" height="20" as="geometry"/>
        </mxCell>
        <mxCell id="RfTrxxiNaBLT--HmSFj_-10" value="intptr_t b" style="rounded=0;whiteSpace=wrap;html=1;fillColor=#fff2cc;strokeColor=#d6b656;" vertex="1" parent="1">
          <mxGeometry x="480" y="320" width="60" height="20" as="geometry"/>
        </mxCell>
        <mxCell id="RfTrxxiNaBLT--HmSFj_-11" value="&lt;b&gt;tcg_gen_addi_ptr&lt;/b&gt;" style="rounded=0;whiteSpace=wrap;html=1;" vertex="1" parent="1">
          <mxGeometry x="200" y="360" width="120" height="20" as="geometry"/>
        </mxCell>
        <mxCell id="RfTrxxiNaBLT--HmSFj_-22" style="edgeStyle=orthogonalEdgeStyle;rounded=0;orthogonalLoop=1;jettySize=auto;html=1;strokeWidth=2;fillColor=#f8cecc;strokeColor=#b85450;" edge="1" parent="1" source="RfTrxxiNaBLT--HmSFj_-12" target="RfTrxxiNaBLT--HmSFj_-20">
          <mxGeometry relative="1" as="geometry">
            <Array as="points">
              <mxPoint x="360" y="390"/>
              <mxPoint x="540" y="390"/>
            </Array>
          </mxGeometry>
        </mxCell>
        <mxCell id="RfTrxxiNaBLT--HmSFj_-12" value="TCGv_ptr r" style="rounded=0;whiteSpace=wrap;html=1;fillColor=#f8cecc;strokeColor=#b85450;" vertex="1" parent="1">
          <mxGeometry x="320" y="360" width="80" height="20" as="geometry"/>
        </mxCell>
        <mxCell id="RfTrxxiNaBLT--HmSFj_-28" style="edgeStyle=orthogonalEdgeStyle;rounded=0;orthogonalLoop=1;jettySize=auto;html=1;strokeWidth=2;fillColor=#dae8fc;strokeColor=#6c8ebf;" edge="1" parent="1" source="RfTrxxiNaBLT--HmSFj_-13" target="RfTrxxiNaBLT--HmSFj_-17">
          <mxGeometry relative="1" as="geometry">
            <Array as="points">
              <mxPoint x="440" y="410"/>
              <mxPoint x="360" y="410"/>
            </Array>
          </mxGeometry>
        </mxCell>
        <mxCell id="RfTrxxiNaBLT--HmSFj_-13" value="TCGv_ptr a" style="rounded=0;whiteSpace=wrap;html=1;fillColor=#dae8fc;strokeColor=#6c8ebf;" vertex="1" parent="1">
          <mxGeometry x="400" y="360" width="80" height="20" as="geometry"/>
        </mxCell>
        <mxCell id="RfTrxxiNaBLT--HmSFj_-14" value="intptr_t b" style="rounded=0;whiteSpace=wrap;html=1;fillColor=#d80073;strokeColor=#A50040;fontColor=#ffffff;" vertex="1" parent="1">
          <mxGeometry x="480" y="360" width="60" height="20" as="geometry"/>
        </mxCell>
        <mxCell id="RfTrxxiNaBLT--HmSFj_-16" value="&lt;b&gt;gen_helper_xxx&lt;/b&gt;" style="rounded=0;whiteSpace=wrap;html=1;" vertex="1" parent="1">
          <mxGeometry x="200" y="420" width="100" height="20" as="geometry"/>
        </mxCell>
        <mxCell id="RfTrxxiNaBLT--HmSFj_-17" value="CPUX86State *env" style="rounded=0;whiteSpace=wrap;html=1;fillColor=#dae8fc;strokeColor=#6c8ebf;" vertex="1" parent="1">
          <mxGeometry x="300" y="420" width="120" height="20" as="geometry"/>
        </mxCell>
        <mxCell id="RfTrxxiNaBLT--HmSFj_-18" value="target/i386/ops_sse.h" style="text;html=1;align=left;verticalAlign=middle;resizable=0;points=[];;autosize=1;" vertex="1" parent="1">
          <mxGeometry x="200" y="400" width="130" height="20" as="geometry"/>
        </mxCell>
        <mxCell id="RfTrxxiNaBLT--HmSFj_-19" value="MMXReg *d" style="rounded=0;whiteSpace=wrap;html=1;fillColor=#ffe6cc;strokeColor=#d79b00;" vertex="1" parent="1">
          <mxGeometry x="420" y="420" width="80" height="20" as="geometry"/>
        </mxCell>
        <mxCell id="RfTrxxiNaBLT--HmSFj_-20" value="MMXReg *s" style="rounded=0;whiteSpace=wrap;html=1;fillColor=#f8cecc;strokeColor=#b85450;" vertex="1" parent="1">
          <mxGeometry x="500" y="420" width="80" height="20" as="geometry"/>
        </mxCell>
        <mxCell id="RfTrxxiNaBLT--HmSFj_-24" value="&lt;font color=&quot;#999999&quot;&gt;/// r=a+b&lt;/font&gt;" style="text;html=1;align=left;verticalAlign=middle;resizable=0;points=[];;autosize=1;" vertex="1" parent="1">
          <mxGeometry x="200" y="300" width="60" height="20" as="geometry"/>
        </mxCell>
        <mxCell id="RfTrxxiNaBLT--HmSFj_-26" style="edgeStyle=orthogonalEdgeStyle;rounded=0;orthogonalLoop=1;jettySize=auto;html=1;strokeWidth=2;fillColor=#dae8fc;strokeColor=#6c8ebf;" edge="1" parent="1" source="RfTrxxiNaBLT--HmSFj_-25" target="RfTrxxiNaBLT--HmSFj_-9">
          <mxGeometry relative="1" as="geometry"/>
        </mxCell>
        <mxCell id="RfTrxxiNaBLT--HmSFj_-25" value="cpu_env" style="rounded=0;whiteSpace=wrap;html=1;fillColor=#dae8fc;strokeColor=#6c8ebf;" vertex="1" parent="1">
          <mxGeometry x="520" y="270" width="60" height="20" as="geometry"/>
        </mxCell>
        <mxCell id="RfTrxxiNaBLT--HmSFj_-29" value="&lt;b&gt;&lt;font color=&quot;#b85450&quot;&gt;if&lt;/font&gt;&lt;/b&gt;" style="rounded=0;whiteSpace=wrap;html=1;" vertex="1" parent="1">
          <mxGeometry x="160" y="60" width="20" height="20" as="geometry"/>
        </mxCell>
        <mxCell id="RfTrxxiNaBLT--HmSFj_-30" value="使用xmm" style="rounded=0;whiteSpace=wrap;html=1;dashed=1;" vertex="1" parent="1">
          <mxGeometry x="180" y="60" width="60" height="20" as="geometry"/>
        </mxCell>
        <mxCell id="RfTrxxiNaBLT--HmSFj_-31" value="&lt;b&gt;&lt;font color=&quot;#b85450&quot;&gt;else&lt;/font&gt;&lt;/b&gt;" style="rounded=0;whiteSpace=wrap;html=1;" vertex="1" parent="1">
          <mxGeometry x="160" y="80" width="40" height="20" as="geometry"/>
        </mxCell>
        <mxCell id="RfTrxxiNaBLT--HmSFj_-32" value="&lt;font color=&quot;#666600&quot;&gt;&lt;b&gt;offset&lt;/b&gt;&lt;/font&gt;" style="rounded=0;whiteSpace=wrap;html=1;" vertex="1" parent="1">
          <mxGeometry x="200" y="100" width="40" height="20" as="geometry"/>
        </mxCell>
        <mxCell id="RfTrxxiNaBLT--HmSFj_-33" value="CPUX86State" style="rounded=0;whiteSpace=wrap;html=1;fillColor=#dae8fc;strokeColor=#6c8ebf;" vertex="1" parent="1">
          <mxGeometry x="240" y="100" width="80" height="20" as="geometry"/>
        </mxCell>
        <mxCell id="RfTrxxiNaBLT--HmSFj_-44" style="edgeStyle=orthogonalEdgeStyle;rounded=0;orthogonalLoop=1;jettySize=auto;html=1;strokeWidth=2;fillColor=#fff2cc;strokeColor=#d6b656;" edge="1" parent="1" source="RfTrxxiNaBLT--HmSFj_-34" target="RfTrxxiNaBLT--HmSFj_-10">
          <mxGeometry relative="1" as="geometry"/>
        </mxCell>
        <mxCell id="RfTrxxiNaBLT--HmSFj_-34" value="fpregs[reg].mmx" style="rounded=0;whiteSpace=wrap;html=1;fillColor=#f5f5f5;strokeColor=#666666;fontColor=#333333;" vertex="1" parent="1">
          <mxGeometry x="320" y="100" width="100" height="20" as="geometry"/>
        </mxCell>
        <mxCell id="RfTrxxiNaBLT--HmSFj_-36" value="&lt;b&gt;&lt;font color=&quot;#b85450&quot;&gt;if&lt;/font&gt;&lt;/b&gt;" style="rounded=0;whiteSpace=wrap;html=1;" vertex="1" parent="1">
          <mxGeometry x="200" y="120" width="20" height="20" as="geometry"/>
        </mxCell>
        <mxCell id="RfTrxxiNaBLT--HmSFj_-37" value="内存操作数" style="rounded=0;whiteSpace=wrap;html=1;dashed=1;" vertex="1" parent="1">
          <mxGeometry x="220" y="120" width="80" height="20" as="geometry"/>
        </mxCell>
        <mxCell id="RfTrxxiNaBLT--HmSFj_-39" value="&lt;font color=&quot;#666600&quot;&gt;&lt;b&gt;offset&lt;/b&gt;&lt;/font&gt;" style="rounded=0;whiteSpace=wrap;html=1;" vertex="1" parent="1">
          <mxGeometry x="240" y="180" width="40" height="20" as="geometry"/>
        </mxCell>
        <mxCell id="RfTrxxiNaBLT--HmSFj_-40" value="CPUX86State" style="rounded=0;whiteSpace=wrap;html=1;fillColor=#dae8fc;strokeColor=#6c8ebf;" vertex="1" parent="1">
          <mxGeometry x="280" y="180" width="80" height="20" as="geometry"/>
        </mxCell>
        <mxCell id="RfTrxxiNaBLT--HmSFj_-45" style="edgeStyle=orthogonalEdgeStyle;rounded=0;orthogonalLoop=1;jettySize=auto;html=1;strokeWidth=2;fillColor=#d80073;strokeColor=#A50040;" edge="1" parent="1" source="RfTrxxiNaBLT--HmSFj_-41" target="RfTrxxiNaBLT--HmSFj_-14">
          <mxGeometry relative="1" as="geometry">
            <Array as="points">
              <mxPoint x="500" y="190"/>
            </Array>
          </mxGeometry>
        </mxCell>
        <mxCell id="RfTrxxiNaBLT--HmSFj_-41" value="mmx_t0" style="rounded=0;whiteSpace=wrap;html=1;fillColor=#f5f5f5;strokeColor=#666666;fontColor=#333333;" vertex="1" parent="1">
          <mxGeometry x="360" y="180" width="60" height="20" as="geometry"/>
        </mxCell>
        <mxCell id="RfTrxxiNaBLT--HmSFj_-43" style="edgeStyle=orthogonalEdgeStyle;rounded=0;orthogonalLoop=1;jettySize=auto;html=1;strokeWidth=2;fillColor=#f5f5f5;strokeColor=#666666;" edge="1" parent="1" source="RfTrxxiNaBLT--HmSFj_-42" target="RfTrxxiNaBLT--HmSFj_-41">
          <mxGeometry relative="1" as="geometry">
            <Array as="points">
              <mxPoint x="470" y="150"/>
              <mxPoint x="470" y="170"/>
              <mxPoint x="390" y="170"/>
            </Array>
          </mxGeometry>
        </mxCell>
        <mxCell id="RfTrxxiNaBLT--HmSFj_-42" value="将64bit (quadword)从内存读到mmx_t0里" style="rounded=0;whiteSpace=wrap;html=1;dashed=1;" vertex="1" parent="1">
          <mxGeometry x="240" y="140" width="220" height="20" as="geometry"/>
        </mxCell>
        <mxCell id="RfTrxxiNaBLT--HmSFj_-46" value="&lt;b&gt;&lt;font color=&quot;#b85450&quot;&gt;else&lt;/font&gt;&lt;/b&gt;" style="rounded=0;whiteSpace=wrap;html=1;" vertex="1" parent="1">
          <mxGeometry x="200" y="200" width="40" height="20" as="geometry"/>
        </mxCell>
        <mxCell id="RfTrxxiNaBLT--HmSFj_-48" value="&lt;font color=&quot;#666600&quot;&gt;&lt;b&gt;offset&lt;/b&gt;&lt;/font&gt;" style="rounded=0;whiteSpace=wrap;html=1;" vertex="1" parent="1">
          <mxGeometry x="240" y="220" width="40" height="20" as="geometry"/>
        </mxCell>
        <mxCell id="RfTrxxiNaBLT--HmSFj_-49" value="CPUX86State" style="rounded=0;whiteSpace=wrap;html=1;fillColor=#dae8fc;strokeColor=#6c8ebf;" vertex="1" parent="1">
          <mxGeometry x="280" y="220" width="80" height="20" as="geometry"/>
        </mxCell>
        <mxCell id="RfTrxxiNaBLT--HmSFj_-51" style="edgeStyle=orthogonalEdgeStyle;rounded=0;orthogonalLoop=1;jettySize=auto;html=1;strokeWidth=2;fillColor=#d80073;strokeColor=#A50040;" edge="1" parent="1" source="RfTrxxiNaBLT--HmSFj_-50" target="RfTrxxiNaBLT--HmSFj_-14">
          <mxGeometry relative="1" as="geometry">
            <Array as="points">
              <mxPoint x="500" y="230"/>
            </Array>
          </mxGeometry>
        </mxCell>
        <mxCell id="RfTrxxiNaBLT--HmSFj_-50" value="fpregs[rm].mmx" style="rounded=0;whiteSpace=wrap;html=1;fillColor=#f5f5f5;strokeColor=#666666;fontColor=#333333;" vertex="1" parent="1">
          <mxGeometry x="360" y="220" width="90" height="20" as="geometry"/>
        </mxCell>
      </root>
    </mxGraphModel>
  </diagram>
</mxfile>
